<?xml version="1.0" encoding="iso-8859-1"?>
<!-- Uploaded to: SVG Repo, www.svgrepo.com, Generator: SVG Repo Mixer Tools -->
<svg version="1.1" id="Layer_1" xmlns="http://www.w3.org/2000/svg" xmlns:xlink="http://www.w3.org/1999/xlink" 
	 viewBox="0 0 512.001 512.001" xml:space="preserve">
<g>
	<rect x="10.2" y="265.806" style="fill:#FF9ECA;" width="491.603" height="36.49"/>
	<rect x="10.2" y="129.022" style="fill:#FF9ECA;" width="491.603" height="88.502"/>
</g>
<g>
	<path style="fill:#4D1E1E;" d="M501.801,227.725c5.633,0,10.2-4.566,10.2-10.2v-88.506c0-5.633-4.566-10.2-10.2-10.2H10.2
		C4.566,118.821,0,123.387,0,129.02v88.506c0,5.633,4.566,10.2,10.2,10.2h69.354v27.879H10.2C4.566,255.603,0,260.169,0,265.802
		v36.49c0,5.633,4.566,10.2,10.2,10.2h69.354v60.29h-3.06c-5.633,0-10.2,4.566-10.2,10.2c0,5.633,4.566,10.2,10.2,10.2h26.518
		c5.633,0,10.2-4.566,10.2-10.2c0-5.633-4.566-10.2-10.2-10.2h-3.06v-60.288h312.096v60.288h-3.06c-5.633,0-10.2,4.566-10.2,10.2
		c0,5.633,4.566,10.2,10.2,10.2h26.518c5.633,0,10.2-4.566,10.2-10.2c0-5.633-4.566-10.2-10.2-10.2h-3.06v-60.288H501.8
		c5.633,0,10.2-4.566,10.2-10.2v-36.49c0-5.633-4.566-10.2-10.2-10.2h-69.354v-27.879L501.801,227.725L501.801,227.725
		L501.801,227.725z M20.398,139.219h471.204v68.107H20.398V139.219z M491.602,292.094H20.398v-16.091h471.204V292.094z
		 M412.048,255.604H99.952v-27.879h312.096V255.604z"/>
	<path style="fill:#4D1E1E;" d="M89.753,161.657c-5.633,0-10.2,4.566-10.2,10.2v3.06c0,5.633,4.566,10.2,10.2,10.2
		c5.633,0,10.2-4.566,10.2-10.2v-3.06C99.952,166.224,95.386,161.657,89.753,161.657z"/>
	<path style="fill:#4D1E1E;" d="M422.248,161.657c-5.633,0-10.2,4.566-10.2,10.2v3.06c0,5.633,4.566,10.2,10.2,10.2
		c5.633,0,10.2-4.566,10.2-10.2v-3.06C432.446,166.224,427.88,161.657,422.248,161.657z"/>
</g>
</svg>