<?xml version="1.0" encoding="iso-8859-1"?>
<!-- Uploaded to: SVG Repo, www.svgrepo.com, Generator: SVG Repo Mixer Tools -->
<svg height="800px" width="800px" version="1.1" id="Layer_1" xmlns="http://www.w3.org/2000/svg" xmlns:xlink="http://www.w3.org/1999/xlink" 
	 viewBox="0 0 511.999 511.999" xml:space="preserve">
<g>
	<path style="fill:#4D1E1E;" d="M205.127,157.907c-54.595,0-105.972,19.217-144.665,54.112C21.472,247.179,0,294.013,0,343.893
		c0,5.633,4.566,10.199,10.199,10.199s10.199-4.566,10.199-10.199c0-4.872,0.25-9.693,0.712-14.459h81.249
		c-0.404,4.786-0.614,9.609-0.614,14.459c0,5.633,4.566,10.199,10.199,10.199c5.633,0,10.199-4.566,10.199-10.199
		c0-43.677,18.817-84.893,52.985-116.056c4.162-3.796,4.459-10.247,0.663-14.408c-3.796-4.161-10.246-4.459-14.408-0.663
		c-5.829,5.317-11.255,10.901-16.276,16.715H71.709c33.652-31.519,81.021-51.177,133.419-51.177
		c101.859,0,184.729,74.283,184.729,165.588c0,5.633,4.567,10.199,10.199,10.199c5.632,0,10.199-4.566,10.199-10.199
		c0-4.852-0.209-9.674-0.612-14.459h81.246c0.462,4.767,0.712,9.587,0.712,14.459c0,5.633,4.567,10.199,10.199,10.199
		c5.632,0,10.199-4.566,10.199-10.199c0-49.88-21.472-96.714-60.462-131.875c-38.694-34.895-90.071-54.112-144.665-54.112H205.127z
		 M382.218,249.88h76.634c4.282,5.545,8.196,11.333,11.712,17.339h-78.429C389.176,261.292,385.866,255.507,382.218,249.88z
		 M419.891,213.084c7.246,5.038,14.068,10.466,20.4,16.397h-73.385c-4.901-5.674-10.203-11.196-15.874-16.397H419.891z
		 M306.873,178.305c26.869,0,52.414,5.173,75.467,14.459h-56.985c-0.187,0-0.369,0.018-0.554,0.028
		c-8.318-5.438-17.031-10.276-26.073-14.488h8.145V178.305z M24.53,309.035c1.759-7.329,4.054-14.482,6.86-21.418h79.881
		c-2.441,7.004-4.424,14.152-5.936,21.418H24.53z M119.88,267.219H41.436c3.515-6.005,7.429-11.793,11.712-17.339h76.642
		C126.143,255.507,122.838,261.293,119.88,267.219z M406.67,309.035c-1.509-7.267-3.491-14.416-5.931-21.418h79.871
		c2.805,6.936,5.101,14.089,6.86,21.418H406.67z"/>
	<path style="fill:#4D1E1E;" d="M193.629,188.783c-1.801,1.083-3.605,2.206-5.363,3.336c-4.738,3.049-6.106,9.359-3.059,14.096
		c1.95,3.03,5.233,4.681,8.587,4.681c1.89,0,3.802-0.524,5.51-1.623c1.584-1.02,3.211-2.032,4.836-3.009
		c4.827-2.903,6.388-9.169,3.485-13.996C204.722,187.439,198.457,185.879,193.629,188.783z"/>
</g>
</svg>